<svg xmlns="http://www.w3.org/2000/svg" width="1920" height="1080" preserveAspectRatio="none"><g mask="url(&quot;#SvgjsMask1020&quot;)" fill="none"><path fill="rgba(9, 27, 45, 1)" d="M0 0h1920v1080H0z"/><path d="M-198.52 54.53a253.05 253.05 0 10506.1 0 253.05 253.05 0 10-506.1 0z" fill="rgba(28, 83, 142, 0.4)" class="triangle-float1"/><path d="M288-72H-36v324h324z" fill="rgba(28, 83, 142, 0.4)" class="triangle-float2"/><path d="M288 180V-36L-36 72z" fill="rgba(28, 83, 142, 0.4)" class="triangle-float3"/><path d="M1481.55 78.45a300.9 300.9 0 10601.8 0 300.9 300.9 0 10-601.8 0z" fill="rgba(28, 83, 142, 0.4)" class="triangle-float2"/><path d="M1987.417 25.46l-157.972-147.31-141.981 310.614z" fill="rgba(28, 83, 142, 0.4)" class="triangle-float3"/><path d="M1750.417 354.997l277.722-166.872-444.595-110.85zM160.703 1245.809c79.954 6.039 156.953-37.903 197.124-107.296 40.247-69.525 37.607-156.622-4.872-224.806-40.232-64.576-116.325-96.467-192.252-91.599-68.217 4.373-122.176 53.195-153.824 113.785-29.162 55.83-25.693 119.867 2.31 176.287 32.089 64.65 79.543 128.193 151.514 133.629" fill="rgba(28, 83, 142, 0.4)" class="triangle-float1"/><path d="M311.3 1125.197L266.206 804.35-9.547 1170.29zM-80.21 800.21a16.42 16.42 0 1032.84 0 16.42 16.42 0 10-32.84 0zm2067.597 131.299L1631.2 829.006l72.884 315.696z" fill="rgba(28, 83, 142, 0.4)" class="triangle-float3"/><path d="M1570.35 853.65a123.3 123.3 0 10246.6 0 123.3 123.3 0 10-246.6 0z" fill="rgba(28, 83, 142, 0.4)" class="triangle-float2"/><path d="M1920.327 1115.754l-51.234-367.084-258.758 194.988z" fill="rgba(28, 83, 142, 0.4)" class="triangle-float3"/></g><defs><style>@keyframes float1{0%{transform:translate(0,0)}50%{transform:translate(-10px,0)}}@keyframes float2{0%{transform:translate(0,0)}50%{transform:translate(-5px,-5px)}}@keyframes float3{0%{transform:translate(0,0)}50%{transform:translate(0,-10px)}}.triangle-float1{animation:float1 5s infinite}.triangle-float2{animation:float2 4s infinite}.triangle-float3{animation:float3 6s infinite}</style><mask id="SvgjsMask1020"><path fill="#fff" d="M0 0h1920v1080H0z"/></mask></defs></svg>